<svg xmlns="http://www.w3.org/2000/svg" version="1.1" xmlns:xlink="http://www.w3.org/1999/xlink" width="2000" height="107" viewBox="0 0 2000 107"><svg xml:space="preserve" width="2000" height="107" data-version="2" data-id="lg_9baLhGfwKooQ5WCUqQ" viewBox="0 0 561 107" x="0" y="0"><rect width="100%" height="100%" fill="transparent"></rect><path fill="#1ebbd7" d="M143.699 1.133c-2.654 0-3.828 1.61-4.762 3.923L122.98 45.53l-.495 3.078v19.777l.07 15.213c-.07 4.036 2.972 6.156 6.015 6.265h11.71a19.722 19.722 0 0 1-.601-4.811v-.213a19.335 19.335 0 0 1 19.352-19.14c10.685 0 19.317 8.668 19.352 19.317v.071a19.23 19.23 0 0 1-.601 4.78h99.627l45.812.042a19.232 19.232 0 0 1-.643-4.85 19.388 19.388 0 0 1 19.352-19.37 19.388 19.388 0 0 1 19.35 19.341 19.533 19.533 0 0 1-.669 4.928l10.133.014a20.308 20.308 0 0 1-.605-4.918v-.035c0-10.688 8.632-19.317 19.32-19.317 10.684 0 19.352 8.629 19.352 19.317v.07a19.54 19.54 0 0 1-.672 5.025h21.617l.389-75.216c.07-7.11-8.775-14.115-15.885-13.903M168.779 38.28c0 2.406-2.09 4.316-4.642 4.316h-24.949c-2.547 0-6.106-1.185-4.337-5.077l6.771-16.929c.99-2.653 2.094-4.316 4.642-4.316h17.873c2.548 0 4.642 1.91 4.642 4.316zm54.767.41c0 2.516-2.077 4.514-4.603 4.514h-24.758c-2.526 0-4.607-1.998-4.607-4.514V20.18c0-2.52 2.077-4.518 4.607-4.518h24.758c2.526 0 4.603 1.999 4.603 4.518zm37.901 0c0 2.516-2.073 4.514-4.606 4.514h-24.758c-2.526 0-4.603-1.998-4.603-4.514V20.18c0-2.52 2.077-4.518 4.603-4.518h24.758c2.53 0 4.606 1.999 4.606 4.518zm37.905 0c0 2.516-2.077 4.514-4.61 4.514h-24.75c-2.53 0-4.61-1.998-4.61-4.514V20.18c0-2.52 2.076-4.518 4.61-4.518h24.75c2.533 0 4.61 1.999 4.61 4.518zm37.902 0c0 2.516-2.08 4.514-4.607 4.514h-24.75c-2.537 0-4.61-1.998-4.61-4.514V20.18c0-2.52 2.073-4.518 4.61-4.518h24.75c2.526 0 4.607 1.999 4.607 4.518zm37.905 0c0 2.516-2.08 4.514-4.61 4.514h-24.755c-2.526 0-4.606-1.998-4.606-4.514V20.18c0-2.52 2.08-4.518 4.606-4.518h24.755c2.53 0 4.61 1.999 4.61 4.518zm37.898 0c0 2.516-2.077 4.514-4.61 4.514h-24.755a4.553 4.553 0 0 1-4.603-4.514V20.18c0-2.52 2.074-4.518 4.603-4.518h24.755c2.533 0 4.61 1.999 4.61 4.518z"></path><path fill="#1ebbd7" d="M159.032 102.472H159a17.141 17.141 0 0 1-17.102-17.137v-.191a17.138 17.138 0 0 1 17.134-16.968 17.145 17.145 0 0 1 17.138 17.141v.057a17.138 17.138 0 0 1-17.138 17.098m-.021-11.243h.025c3.24 0 5.88-2.636 5.887-5.862v-.053a5.887 5.887 0 0 0-11.77 0v.148a5.88 5.88 0 0 0 5.858 5.767m230.466 11.243h-.036a17.134 17.134 0 0 1-17.102-17.137v-.018a17.141 17.141 0 0 1 34.279-.007v.064a17.145 17.145 0 0 1-17.141 17.098m-.022-11.25h.025a5.876 5.876 0 0 0 5.884-5.855v-.053c0-3.245-2.636-5.88-5.88-5.891a5.908 5.908 0 0 0-5.89 5.89v.17a5.876 5.876 0 0 0 5.861 5.739m-47.517 11.25h-.035A17.134 17.134 0 0 1 324.8 85.335v-.018a17.141 17.141 0 0 1 34.28-.007v.064a17.145 17.145 0 0 1-17.142 17.098m-.025-11.25h.025a5.876 5.876 0 0 0 5.883-5.855v-.053c0-3.245-2.635-5.88-5.88-5.891a5.908 5.908 0 0 0-5.89 5.89v.17a5.88 5.88 0 0 0 5.862 5.739"></path><g transform="translate(280.5 49.33)"><filter id="a" width="140%" height="140%" x="-20%" y="-20%"><feGaussianBlur in="SourceAlpha"></feGaussianBlur><feOffset result="oBlur"></feOffset><feFlood flood-color="#000" flood-opacity="1"></feFlood><feComposite in2="oBlur" operator="in"></feComposite><feMerge><feMergeNode></feMergeNode><feMergeNode in="SourceGraphic"></feMergeNode></feMerge></filter><g filter="url(#a)"><path fill="#007bff" d="M-202.42 30.875h-19.27V9.045q0-4.05.31-8.31.31-4.27.66-7.18.35-2.9.44-3.69h-.35l-11.18 41.01h-15.22l-11.27-40.92h-.35q.09.79.48 3.65.4 2.86.75 7.13.35 4.26.35 8.31v21.83h-17.86v-60.55h27.46l9.15 34.94h.35l9.06-34.94h26.49z"></path><rect width="72.51" height="60.55" x="-36.26" y="-30.27" fill="none" rx="0" ry="0" transform="translate(-238.18 1.1)"></rect><path fill="#007bff" d="M-168.89-16.645q10.65 0 17.34 3.56 6.68 3.56 6.68 11.57v18.13q0 1.5.71 2.46.7.97 2.11.97h3.17v10.12q-.27.18-1.37.57-1.1.4-3.12.8-2.02.39-4.66.39-5.11 0-8.41-1.54t-4.53-4.27q-3.34 2.64-7.48 4.23-4.14 1.58-9.68 1.58-16.37 0-16.37-13.02 0-6.78 3.65-10.34 3.66-3.57 10.52-4.89 6.86-1.32 17.95-1.32V.075q0-2.73-1.89-4.14-1.89-1.41-4.88-1.41-2.73 0-4.71.97t-1.98 3.08v.35h-17.25q-.09-.44-.09-1.23 0-6.6 6.29-10.47 6.3-3.87 18-3.87m6.51 27.28q-7.48 0-11.04 1.62-3.57 1.63-3.57 4.36 0 4.4 5.99 4.4 3.43 0 6.03-1.85 2.59-1.85 2.59-4.57z"></path><rect width="55.62" height="48.57" x="-27.81" y="-24.29" fill="none" rx="0" ry="0" transform="translate(-166.19 8.14)"></rect><path fill="#007bff" d="M-112.04-15.595h9.85v11.88h-9.85v17.69q0 3.17 1.05 4.62 1.06 1.45 3.88 1.45h4.92v10.3q-2.11.7-5.45 1.14-3.35.44-5.81.44-7.74 0-11.92-2.81-4.18-2.82-4.18-9.6v-23.23h-6.52v-11.88h7.22l3.78-14.08h13.03z"></path><rect width="33.88" height="61.6" x="-16.94" y="-30.8" fill="none" rx="0" ry="0" transform="translate(-118.63 1.63)"></rect><path fill="#007bff" d="M-71.12-16.645q10.65 0 17.33 3.56 6.69 3.56 6.69 11.57v18.13q0 1.5.71 2.46.7.97 2.11.97h3.17v10.12q-.27.18-1.37.57-1.1.4-3.12.8-2.03.39-4.67.39-5.1 0-8.4-1.54-3.3-1.54-4.53-4.27-3.35 2.64-7.48 4.23-4.14 1.58-9.68 1.58-16.37 0-16.37-13.02 0-6.78 3.65-10.34 3.65-3.57 10.52-4.89 6.86-1.32 17.95-1.32V.075q0-2.73-1.89-4.14-1.89-1.41-4.89-1.41-2.72 0-4.7.97t-1.98 3.08v.35h-17.25q-.09-.44-.09-1.23 0-6.6 6.29-10.47 6.29-3.87 18-3.87m6.51 27.28q-7.48 0-11.04 1.62-3.57 1.63-3.57 4.36 0 4.4 5.99 4.4 3.43 0 6.02-1.85 2.6-1.85 2.6-4.57z"></path><rect width="55.62" height="48.57" x="-27.81" y="-24.29" fill="none" rx="0" ry="0" transform="translate(-68.42 8.14)"></rect><path fill="#007bff" d="M-14.27-15.595h9.85v11.88h-9.85v17.69q0 3.17 1.05 4.62 1.06 1.45 3.87 1.45h4.93v10.3q-2.11.7-5.45 1.14-3.35.44-5.81.44-7.75 0-11.93-2.81-4.18-2.82-4.18-9.6v-23.23h-6.51v-11.88h7.22l3.78-14.08h13.03z"></path><rect width="33.88" height="61.6" x="-16.94" y="-30.8" fill="none" rx="0" ry="0" transform="translate(-20.86 1.63)"></rect><path fill="#007bff" d="M51.73 30.875H37.38l-1.14-7.04q-2.73 3.78-7.17 5.94-4.45 2.15-9.38 2.15-8.09 0-12.14-4.49-4.05-4.48-4.05-12.93v-30.1h17.51v27.99q0 2.99 1.54 4.79 1.54 1.81 4.36 1.81 3.26 0 5.28-2.12 2.02-2.11 2.02-5.19v-27.28h17.52z"></path><rect width="48.23" height="47.52" x="-24.11" y="-23.76" fill="none" rx="0" ry="0" transform="translate(28.11 8.66)"></rect><path fill="#007bff" d="M153.19 30.875h-19.45V7.905h-21.38v22.97H92.91v-60.55h19.45v22.09h21.38v-22.09h19.45z"></path><rect width="60.28" height="60.55" x="-30.14" y="-30.27" fill="none" rx="0" ry="0" transform="translate(123.55 1.1)"></rect><path fill="#007bff" d="M213.03 30.875h-14.34l-1.15-7.04q-2.73 3.78-7.17 5.94-4.44 2.15-9.37 2.15-8.1 0-12.15-4.49-4.04-4.48-4.04-12.93v-30.1h17.51v27.99q0 2.99 1.54 4.79 1.54 1.81 4.35 1.81 3.26 0 5.28-2.12 2.03-2.11 2.03-5.19v-27.28h17.51z"></path><rect width="48.22" height="47.52" x="-24.11" y="-23.76" fill="none" rx="0" ry="0" transform="translate(189.42 8.66)"></rect><path fill="#007bff" d="M241.28-11.285q5.01-5.36 13.02-5.36 9.42 0 14.52 6.11 5.11 6.12 5.11 18.09 0 12.05-5.11 18.21-5.1 6.16-14.52 6.16-9.68 0-14.78-7.65l-1.5 6.6h-14.25v-63.8h17.51zm7.57 7.57q-3.88 0-5.81 2.77-1.94 2.78-1.94 7.18v2.9q0 4.4 1.94 7.13 1.93 2.73 5.81 2.73 7.56 0 7.56-8.98v-4.66q0-9.07-7.56-9.07"></path><rect width="50.16" height="64.85" x="-25.08" y="-32.42" fill="none" rx="0" ry="0" transform="translate(249.35)"></rect></g></g></svg></svg>